<svg width="18" height="30" viewBox="0 0 18 30" fill="none" xmlns="http://www.w3.org/2000/svg">
<path d="M11.8877 22.5016C11.8877 24.8938 11.8807 27.2801 11.8947 29.6724C11.8947 29.9342 11.8105 30.0056 11.5018 29.9997C9.10175 29.9878 6.70877 29.9878 4.30877 29.9997C3.97895 29.9997 3.87368 29.9342 3.87368 29.6426C3.88772 24.8998 3.8807 20.1629 3.8807 15.42C3.8807 14.944 3.94386 15.0035 3.36842 14.9975C2.35088 14.9975 1.33333 14.9916 0.315789 15.0035C0.0701754 15.0035 0 14.938 0 14.7297C0.00701754 13.2241 0.00701754 11.7126 0 10.2071C0 9.99878 0.0701754 9.93332 0.315789 9.93927C1.38246 9.95117 2.44211 9.93332 3.50877 9.95117C3.79649 9.95712 3.88772 9.89166 3.88772 9.63577C3.87368 8.36824 3.88772 7.09475 3.8807 5.82721C3.87368 4.77391 4.06316 3.75631 4.68772 2.82797C5.3614 1.81632 6.37193 1.12007 7.62105 0.667806C8.67368 0.28695 9.78246 0.108424 10.9193 0.0548662C13.1719 -0.0522495 15.4316 0.0370136 17.6842 0.00130832C17.9368 -0.00464255 18 0.0727188 18 0.275049C17.993 1.84013 17.993 3.41116 18 4.97624C18 5.21427 17.8947 5.24998 17.6491 5.24998C16.3509 5.24403 15.0526 5.24403 13.7544 5.24403C12.6737 5.24403 11.8947 5.90458 11.8947 6.80911C11.8947 7.7434 11.9088 8.67173 11.8877 9.60602C11.8807 9.87381 11.986 9.93927 12.2877 9.93927C14.0632 9.92736 15.8456 9.93927 17.6211 9.92737C17.9158 9.92737 18.014 9.99878 17.9789 10.2487C17.8737 11.0164 17.7825 11.784 17.6842 12.5517C17.593 13.2896 17.4386 14.0216 17.2982 14.7535C17.2561 14.9618 17.1789 15.0094 16.9544 15.0094C15.4316 15.0035 13.9158 15.0035 12.393 15.0094C11.7965 15.0094 11.8807 14.944 11.8807 15.4557C11.8877 17.8004 11.8877 20.151 11.8877 22.5016Z" fill="#076816"/>
</svg>
