<svg width="31" height="30" viewBox="0 0 31 30" fill="none" xmlns="http://www.w3.org/2000/svg">
<path fill-rule="evenodd" clip-rule="evenodd" d="M25.0515 6.99305C25.0515 7.98727 24.2434 8.79305 23.247 8.79305C22.2505 8.79305 21.4425 7.98727 21.4425 6.99305C21.4425 5.99883 22.2505 5.19305 23.247 5.19305C24.2437 5.19305 25.0515 5.99883 25.0515 6.99305ZM15.22 19.9999C12.4517 19.9999 10.2076 17.7614 10.2076 15C10.2076 12.2386 12.4517 10.0001 15.22 10.0001C17.9883 10.0001 20.2324 12.2386 20.2324 15C20.2324 17.7614 17.9883 19.9999 15.22 19.9999ZM15.22 7.29727C10.9552 7.29727 7.498 10.7459 7.498 15C7.498 19.2541 10.9552 22.7027 15.22 22.7027C19.4848 22.7027 22.942 19.2541 22.942 15C22.942 10.7459 19.4848 7.29727 15.22 7.29727ZM15.22 2.70281C19.2352 2.70281 19.7108 2.71805 21.2963 2.79023C22.7625 2.85703 23.5588 3.10125 24.0886 3.3068C24.7904 3.57891 25.2914 3.90398 25.8177 4.42898C26.344 4.95375 26.6699 5.45344 26.9427 6.15375C27.1485 6.68227 27.3936 7.47656 27.4605 8.93906C27.5329 10.5209 27.5482 10.9952 27.5482 15.0005C27.5482 19.0057 27.5329 19.4801 27.4605 21.0616C27.3936 22.5241 27.1487 23.3184 26.9427 23.847C26.6699 24.547 26.344 25.0467 25.8177 25.5717C25.2916 26.0967 24.7907 26.4218 24.0886 26.6939C23.5588 26.8992 22.7625 27.1437 21.2963 27.2105C19.7108 27.2827 19.2352 27.2979 15.22 27.2979C11.2045 27.2979 10.729 27.2827 9.14344 27.2105C7.67728 27.1437 6.881 26.8995 6.35116 26.6939C5.64933 26.4218 5.14839 26.0967 4.62208 25.5717C4.096 25.047 3.76988 24.5473 3.49709 23.847C3.29126 23.3184 3.0462 22.5241 2.97924 21.0616C2.90687 19.4798 2.89159 19.0055 2.89159 15.0005C2.89159 10.9952 2.90687 10.5209 2.97924 8.93906C3.0462 7.47656 3.29103 6.68227 3.49709 6.15375C3.76988 5.45367 4.09577 4.95398 4.62208 4.42898C5.14816 3.90398 5.6491 3.57891 6.35116 3.3068C6.881 3.10148 7.67728 2.85703 9.14344 2.79023C10.7292 2.71805 11.2047 2.70281 15.22 2.70281ZM15.22 0C11.1361 0 10.6239 0.0173438 9.02008 0.0902344C7.41953 0.163125 6.32625 0.416719 5.36996 0.7875C4.38101 1.1707 3.54244 1.68375 2.70645 2.51766C1.87045 3.35156 1.35612 4.18805 0.971964 5.17453C0.600256 6.12867 0.346028 7.21898 0.272955 8.81555C0.199882 10.4154 0.182495 10.9263 0.182495 15C0.182495 19.0737 0.199882 19.5846 0.272955 21.1845C0.346028 22.781 0.600256 23.8713 0.971964 24.8255C1.35612 25.812 1.87045 26.6484 2.70645 27.4823C3.54244 28.3162 4.38101 28.8291 5.36996 29.2125C6.32649 29.5833 7.41953 29.8369 9.02008 29.9098C10.6239 29.9827 11.1361 30 15.22 30C19.3039 30 19.8161 29.9827 21.4199 29.9098C23.0205 29.8369 24.1135 29.5833 25.07 29.2125C26.059 28.8291 26.8976 28.3162 27.7335 27.4823C28.5695 26.6484 29.0836 25.812 29.468 24.8255C29.8397 23.8713 30.094 22.781 30.167 21.1845C30.2401 19.5846 30.2575 19.0737 30.2575 15C30.2575 10.9263 30.2401 10.4154 30.167 8.81555C30.094 7.21898 29.8397 6.12867 29.468 5.17453C29.0836 4.18805 28.5695 3.35156 27.7335 2.51766C26.8976 1.68375 26.059 1.17094 25.07 0.7875C24.1135 0.416719 23.0205 0.163125 21.4199 0.0902344C19.8161 0.0173438 19.3039 0 15.22 0Z" fill="#076816"/>
</svg>
