<svg width="19" height="31" viewBox="0 0 19 31" fill="none" xmlns="http://www.w3.org/2000/svg">
<path d="M8.60604 0.0270704C5.70268 0.29338 3.08848 2.37008 1.5514 5.63493C1.10115 6.59006 0.747929 7.65018 0.524743 8.71798C-0.0671875 11.5526 0.142414 14.5512 1.11667 17.1554C1.48736 18.1464 1.83863 18.8454 2.42862 19.7673C2.49461 19.8723 3.89001 22.2665 5.52607 25.0858C7.30768 28.156 8.54394 30.2634 8.60799 30.3403C8.96897 30.7756 9.4658 30.7756 9.82678 30.3403C9.89082 30.2634 11.1271 28.156 12.9087 25.0858C14.5448 22.2665 15.9402 19.8723 16.0061 19.7673C16.5961 18.8454 16.9474 18.1464 17.3181 17.1554C18.4166 14.2183 18.5388 10.7486 17.6558 7.69371C16.9707 5.33021 15.7791 3.36874 14.1663 1.95269C12.5652 0.546886 10.5487 -0.149616 8.60604 0.0270704ZM9.69093 5.79882C10.1257 5.87308 10.4633 6.00623 10.8573 6.25974C11.9306 6.946 12.6642 8.1956 12.9184 9.7781C12.9669 10.0751 12.9708 10.1494 12.9727 10.7153C12.9727 11.399 12.9533 11.5987 12.8369 12.1365C12.5244 13.573 11.6996 14.7791 10.6438 15.345C10.2537 15.555 9.93546 15.6523 9.49491 15.7009C8.92433 15.7649 8.34404 15.642 7.79093 15.345C6.73516 14.7791 5.91034 13.573 5.59788 12.1365C5.48143 11.5987 5.46202 11.399 5.46202 10.7153C5.46396 10.1494 5.46784 10.0751 5.51636 9.7781C5.73373 8.42862 6.30431 7.30705 7.15048 6.57214C7.49399 6.2751 7.99859 5.99087 8.38674 5.8782C8.79236 5.76041 9.29307 5.72968 9.69093 5.79882Z" fill="#076816"/>
</svg>
