<svg width="22" height="31" viewBox="0 0 22 31" fill="none" xmlns="http://www.w3.org/2000/svg">
<path d="M9.98341 0.693148C6.6046 0.953669 3.56231 2.98523 1.77352 6.1791C1.24953 7.11347 0.838474 8.15054 0.578739 9.19512C-0.110124 11.9682 0.133801 14.9015 1.2676 17.4491C1.69899 18.4185 2.10779 19.1024 2.79439 20.0042C2.87118 20.1069 4.4951 22.4491 6.39907 25.2071C8.47243 28.2106 9.91114 30.2722 9.98567 30.3474C10.4058 30.7732 10.984 30.7732 11.4041 30.3474C11.4786 30.2722 12.9173 28.2106 14.9907 25.2071C16.8946 22.4491 18.5185 20.1069 18.5953 20.0042C19.2819 19.1024 19.6907 18.4185 20.1221 17.4491C21.4005 14.5759 21.5428 11.1816 20.5151 8.19312C19.7178 5.88101 18.3311 3.96218 16.4542 2.57691C14.5909 1.20166 12.2442 0.520303 9.98341 0.693148ZM11.246 6.33942C11.7519 6.41207 12.1449 6.54233 12.6034 6.79032C13.8523 7.46166 14.7061 8.6841 15.002 10.2322C15.0584 10.5228 15.0629 10.5954 15.0652 11.149C15.0652 11.8179 15.0426 12.0133 14.9071 12.5393C14.5435 13.9446 13.5836 15.1245 12.3549 15.6781C11.9009 15.8835 11.5305 15.9787 11.0178 16.0263C10.3538 16.0889 9.67851 15.9686 9.03482 15.6781C7.80615 15.1245 6.84626 13.9446 6.48263 12.5393C6.34712 12.0133 6.32453 11.8179 6.32453 11.149C6.32679 10.5954 6.33131 10.5228 6.38777 10.2322C6.64073 8.91206 7.30475 7.81487 8.28949 7.09593C8.68925 6.80535 9.27648 6.5273 9.7282 6.41708C10.2002 6.30185 10.7829 6.27179 11.246 6.33942Z" fill="#076816"/>
</svg>
