<svg width="123" height="53" viewBox="0 0 123 53" fill="none" xmlns="http://www.w3.org/2000/svg">
<path d="M23.4746 33H20.3809L15.7051 28.3418V14.332L20.3809 9.67383H23.4746V33ZM24.7051 14.332V9.67383H32.9844L37.6426 14.332V19.0254H29.873V14.332H24.7051ZM24.7051 33V28.3418H29.873V24.9316H37.6426V28.3418L32.9844 33H24.7051ZM52.3906 33H45.5L41.1406 28.6406V7.21289H48.9102V28.3418H52.3906V33ZM54.4121 14.332H62.1992V33H54.4121V14.332ZM54.4121 7.05469H62.1992V12.0117H54.4121V7.05469ZM73.502 33H70.3906L65.7324 28.3418V18.9902L70.3906 14.332H73.502V33ZM74.7324 18.9902V14.332H81.2891L85.9473 18.9902V21.7852H78.1777V18.9902H74.7324ZM74.7324 33V28.6406H78.1777V26.3027H85.9473V28.3418L81.2891 33H74.7324ZM96.9336 33H89.1641V7.21289H96.9336V33ZM98.1465 30.3633V19.7109L101.732 14.3672L109.766 14.3496L98.1465 30.3633ZM110.17 33H101.732L100.449 29.2383L105.037 23.0508L110.17 33Z" fill="#8DC63F"/>
<path d="M42.4688 44.0078H39.5469L39.5312 42.3984H41.9844C42.4167 42.3984 42.7708 42.3438 43.0469 42.2344C43.3229 42.1198 43.5286 41.9557 43.6641 41.7422C43.8047 41.5234 43.875 41.2578 43.875 40.9453C43.875 40.5911 43.8073 40.3047 43.6719 40.0859C43.5417 39.8672 43.3359 39.7083 43.0547 39.6094C42.7786 39.5104 42.4219 39.4609 41.9844 39.4609H40.3594V49H38.0156V37.625H41.9844C42.6458 37.625 43.237 37.6875 43.7578 37.8125C44.2839 37.9375 44.7292 38.1276 45.0938 38.3828C45.4583 38.638 45.737 38.9609 45.9297 39.3516C46.1224 39.737 46.2188 40.1953 46.2188 40.7266C46.2188 41.1953 46.112 41.6276 45.8984 42.0234C45.6901 42.4193 45.3594 42.7422 44.9062 42.9922C44.4583 43.2422 43.8724 43.3802 43.1484 43.4062L42.4688 44.0078ZM42.3672 49H38.9062L39.8203 47.1719H42.3672C42.7786 47.1719 43.1146 47.1068 43.375 46.9766C43.6354 46.8411 43.8281 46.6589 43.9531 46.4297C44.0781 46.2005 44.1406 45.9375 44.1406 45.6406C44.1406 45.3073 44.0833 45.0182 43.9688 44.7734C43.8594 44.5286 43.6823 44.3411 43.4375 44.2109C43.1927 44.0755 42.8698 44.0078 42.4688 44.0078H40.2109L40.2266 42.3984H43.0391L43.5781 43.0312C44.2708 43.0208 44.8281 43.1432 45.25 43.3984C45.6771 43.6484 45.987 43.974 46.1797 44.375C46.3776 44.776 46.4766 45.2057 46.4766 45.6641C46.4766 46.3932 46.3177 47.0078 46 47.5078C45.6823 48.0026 45.2161 48.375 44.6016 48.625C43.9922 48.875 43.2474 49 42.3672 49ZM55.8672 47.1719V49H49.8125V47.1719H55.8672ZM50.5781 37.625V49H48.2344V37.625H50.5781ZM55.0781 42.2578V44.0391H49.8125V42.2578H55.0781ZM55.8594 37.625V39.4609H49.8125V37.625H55.8594ZM61.8594 39.5703L58.7656 49H56.2734L60.5 37.625H62.0859L61.8594 39.5703ZM64.4297 49L61.3281 39.5703L61.0781 37.625H62.6797L66.9297 49H64.4297ZM64.2891 44.7656V46.6016H58.2812V44.7656H64.2891ZM67.9844 37.625H72.2266C73.0964 37.625 73.8438 37.7552 74.4688 38.0156C75.099 38.276 75.5833 38.6615 75.9219 39.1719C76.2604 39.6823 76.4297 40.3099 76.4297 41.0547C76.4297 41.6641 76.3255 42.1875 76.1172 42.625C75.9141 43.0573 75.625 43.4193 75.25 43.7109C74.8802 43.9974 74.4453 44.2266 73.9453 44.3984L73.2031 44.7891H69.5156L69.5 42.9609H72.2422C72.6536 42.9609 72.9948 42.888 73.2656 42.7422C73.5365 42.5964 73.7396 42.3932 73.875 42.1328C74.0156 41.8724 74.0859 41.5703 74.0859 41.2266C74.0859 40.862 74.0182 40.5469 73.8828 40.2812C73.7474 40.0156 73.5417 39.8125 73.2656 39.6719C72.9896 39.5312 72.6432 39.4609 72.2266 39.4609H70.3281V49H67.9844V37.625ZM74.3438 49L71.75 43.9297L74.2266 43.9141L76.8516 48.8906V49H74.3438ZM81.7266 49H79.25L79.2656 47.1719H81.7266C82.3411 47.1719 82.8594 47.0339 83.2812 46.7578C83.7031 46.4766 84.0208 46.0677 84.2344 45.5312C84.4531 44.9948 84.5625 44.3464 84.5625 43.5859V43.0312C84.5625 42.4479 84.5 41.9349 84.375 41.4922C84.2552 41.0495 84.0755 40.6771 83.8359 40.375C83.5964 40.0729 83.3021 39.8464 82.9531 39.6953C82.6042 39.5391 82.2031 39.4609 81.75 39.4609H79.2031V37.625H81.75C82.5104 37.625 83.2057 37.7552 83.8359 38.0156C84.4714 38.2708 85.0208 38.638 85.4844 39.1172C85.9479 39.5964 86.3047 40.1693 86.5547 40.8359C86.8099 41.4974 86.9375 42.2344 86.9375 43.0469V43.5859C86.9375 44.3932 86.8099 45.1302 86.5547 45.7969C86.3047 46.4635 85.9479 47.0365 85.4844 47.5156C85.026 47.9896 84.4766 48.3568 83.8359 48.6172C83.2005 48.8724 82.4974 49 81.7266 49ZM80.5781 37.625V49H78.2344V37.625H80.5781Z" fill="#8DC63F"/>
<line x1="94" y1="44.5" x2="123" y2="44.5" stroke="#8DC63F"/>
<line y1="44.5" x2="29" y2="44.5" stroke="#8DC63F"/>
</svg>
