<svg width="23" height="26" viewBox="0 0 23 26" fill="none" xmlns="http://www.w3.org/2000/svg">
<path d="M22.4743 20.7247L22.3629 20.3347C22.099 19.4235 21.2341 18.4732 20.4394 18.2228L17.4985 17.2895C16.701 17.0375 15.5634 17.3764 14.9798 18.0542L13.9155 19.2907C10.0473 18.0765 7.01409 14.5526 5.97027 10.0599L7.03469 8.82331C7.61819 8.14545 7.9099 6.82558 7.69293 5.89909L6.89099 2.48093C6.67402 1.55613 5.85449 0.551322 5.07164 0.248141L4.73593 0.117015C3.95158 -0.186166 2.83298 0.120448 2.24952 0.798259L0.65737 2.64955C0.372934 2.97824 0.191145 3.91836 0.191145 3.92179C0.135459 9.79411 2.11755 15.4518 5.6932 19.6057C9.26007 23.7494 14.112 26.0486 19.1522 25.9992C19.1786 25.9992 20.0113 25.7914 20.2957 25.4627L21.8879 23.6131C22.4714 22.9353 22.7352 21.6359 22.4743 20.7247Z" fill="#076816"/>
</svg>
