<svg width="30" height="30" viewBox="0 0 30 30" fill="none" xmlns="http://www.w3.org/2000/svg">
<g clip-path="url(#clip0_13_129)">
<path fill-rule="evenodd" clip-rule="evenodd" d="M30.0001 5.45945C28.8978 5.96148 27.7109 6.30086 26.4659 6.4525C27.7372 5.6725 28.7129 4.43547 29.1725 2.96219C27.9821 3.68453 26.6668 4.21 25.2615 4.49172C24.1417 3.2657 22.5409 2.5 20.7695 2.5C17.3727 2.5 14.6169 5.32586 14.6169 8.81102C14.6169 9.30578 14.6696 9.78602 14.7753 10.2484C9.66033 9.98453 5.12611 7.47461 2.08837 3.65195C1.55845 4.58734 1.25541 5.6725 1.25541 6.8282C1.25541 9.0168 2.34197 10.9488 3.99361 12.081C2.9865 12.0503 2.03541 11.7632 1.20431 11.2938V11.3713C1.20431 14.4302 3.32611 16.9816 6.14353 17.5595C5.62767 17.7077 5.08345 17.7817 4.52166 17.7817C4.12556 17.7817 3.73814 17.7437 3.36291 17.6697C4.14642 20.1761 6.41798 22.0016 9.11212 22.0504C7.00603 23.7442 4.3508 24.7534 1.46822 24.7534C0.971577 24.7534 0.480327 24.7246 -0.000375748 24.6667C2.72376 26.4543 5.96025 27.4998 9.43439 27.4998C20.7568 27.4998 26.9462 17.8844 26.9462 9.54391C26.9462 9.26945 26.9408 8.995 26.9302 8.72594C28.1335 7.83578 29.1777 6.72531 30.0001 5.45945Z" fill="#076816"/>
</g>
<defs>
<clipPath id="clip0_13_129">
<rect width="30" height="30" fill="white"/>
</clipPath>
</defs>
</svg>
