<svg width="23" height="31" viewBox="0 0 23 31" fill="none" xmlns="http://www.w3.org/2000/svg">
<path d="M10.9537 0.0119858C9.03014 0.175234 7.01038 1.08009 5.41452 2.49335C3.72961 3.9859 2.39379 6.00084 1.52818 8.35161C1.05441 9.63893 0.758745 10.8516 0.555701 12.3442C0.402527 13.4636 0.370467 15.152 0.477333 16.4487C0.61982 18.1931 1.10784 20.2827 1.76684 21.9898L1.95564 22.4702L1.51749 24.182C1.27526 25.1241 0.837113 26.8406 0.541452 27.9973C0.242229 29.1587 0 30.1382 0 30.1848C0 30.2268 0.0463084 30.2874 0.103303 30.3154C0.19592 30.362 0.206607 30.3807 0.188796 30.5253C0.167423 30.6746 0.170985 30.6839 0.252915 30.6512C0.398965 30.5906 3.58712 29.2613 4.93363 28.6923C5.63894 28.3984 6.24451 28.1559 6.28013 28.1559C6.31219 28.1559 6.46537 28.2352 6.61854 28.3378C7.9223 29.196 9.31155 29.7091 10.7899 29.8863C11.3741 29.9516 12.5638 29.9189 13.1373 29.8117C16.5357 29.196 19.4282 26.738 21.2092 22.9646C21.7899 21.7332 22.342 20.0168 22.6377 18.5243C22.9191 17.0924 23.0545 15.3153 22.9797 13.944C22.7873 10.3013 21.7115 7.07361 19.8414 4.53628C18.0282 2.07823 15.7199 0.557699 13.091 0.0959415C12.7063 0.0306435 11.3741 -0.0253277 10.9537 0.0119858ZM12.3465 3.20231C13.6182 3.33757 14.662 3.70605 15.7627 4.41034C17.2552 5.37117 18.5056 6.80775 19.4317 8.63612C20.1442 10.0401 20.5823 11.5513 20.7533 13.2024C20.8352 13.986 20.8352 15.5718 20.7533 16.3741C20.1727 22.0131 16.6176 26.3602 12.3038 26.7146C10.7827 26.8359 9.36855 26.5094 7.98642 25.7165C7.60526 25.4973 6.97476 25.0495 6.77884 24.8629C6.71828 24.8023 6.63991 24.751 6.60429 24.751C6.57223 24.751 5.81349 25.0542 4.92294 25.4273C4.03239 25.8004 3.29858 26.1036 3.29502 26.0943C3.2879 26.085 3.51588 25.1754 3.79729 24.0747C4.0787 22.9693 4.31024 22.0131 4.31024 21.9385C4.31024 21.8638 4.24612 21.6913 4.15351 21.5187C2.66451 18.7248 2.18006 14.8675 2.90318 11.5979C3.06348 10.8889 3.19528 10.4552 3.45532 9.77886C4.16776 7.95515 5.25422 6.36465 6.59004 5.1986C8.27495 3.7247 10.3802 2.99709 12.3465 3.20231Z" fill="#8DC63F"/>
<path d="M7.63384 7.51202C7.55191 7.54467 7.43436 7.6193 7.36667 7.6706C7.185 7.81986 6.6578 8.5568 6.49394 8.89263C5.9703 9.96073 5.85275 11.3833 6.16622 12.7733C6.40489 13.8227 6.69699 14.6249 7.23131 15.707C7.90813 17.069 8.34627 17.8059 9.04802 18.7528C10.1024 20.1754 10.9894 20.9729 12.3502 21.7146C13.3547 22.2649 14.0956 22.5774 14.5124 22.6334C14.8009 22.6707 15.4314 22.5401 15.8019 22.3629C16.3149 22.1203 16.9026 21.5793 17.1306 21.1409C17.3586 20.6931 17.5937 19.681 17.6222 19.0093L17.6436 18.5662L17.5331 18.3983C17.4548 18.2864 17.1342 18.0345 16.4858 17.5774C14.947 16.4953 14.7511 16.3927 14.5088 16.5606C14.4483 16.5979 14.2203 16.9011 14.0066 17.2276C13.3725 18.1931 13.2407 18.361 13.1338 18.361C12.9985 18.361 12.1115 17.7686 11.6983 17.4048C11.2174 16.9757 10.9039 16.6306 10.5085 16.0942C10.0383 15.4552 9.52892 14.541 9.24394 13.8274L9.17982 13.6595L9.4363 13.291C9.77471 12.8199 9.91363 12.5354 10.049 12.041C10.1879 11.5372 10.1808 11.3833 9.97775 10.6884C9.79608 10.068 9.65003 9.55495 9.39712 8.66408C9.19051 7.9318 9.03734 7.63329 8.82361 7.54467C8.62056 7.46538 7.80126 7.44206 7.63384 7.51202Z" fill="#8DC63F"/>
</svg>
